C:\Users\Nicos\Documents\OpenSimProjects\SprintingProject\Study1\PredictiveResults\IC_pred_Sprinting_optimum_28-October-2023__09-53-48_p02_maxVel_01___HTD_Minus_6_GRF.mot
version=1
nRows=5
nColumns=127
inDegrees=yes
endheader
time	ground_force_vx	ground_force_vy	ground_force_vz	ground_force_px	ground_force_py	ground_force_pz	ground_torque_x	ground_torque_y	ground_torque_z	1_ground_force_vx	1_ground_force_vy	1_ground_force_vz	1_ground_force_px	1_ground_force_py	1_ground_force_pz	1_ground_torque_x	1_ground_torque_y	1_ground_torque_z	2_ground_force_vx	2_ground_force_vy	2_ground_force_vz	2_ground_force_px	2_ground_force_py	2_ground_force_pz	2_ground_torque_x	2_ground_torque_y	2_ground_torque_z	3_ground_force_vx	3_ground_force_vy	3_ground_force_vz	3_ground_force_px	3_ground_force_py	3_ground_force_pz	3_ground_torque_x	3_ground_torque_y	3_ground_torque_z	4_ground_force_vx	4_ground_force_vy	4_ground_force_vz	4_ground_force_px	4_ground_force_py	4_ground_force_pz	4_ground_torque_x	4_ground_torque_y	4_ground_torque_z	5_ground_force_vx	5_ground_force_vy	5_ground_force_vz	5_ground_force_px	5_ground_force_py	5_ground_force_pz	5_ground_torque_x	5_ground_torque_y	5_ground_torque_z	6_ground_force_vx	6_ground_force_vy	6_ground_force_vz	6_ground_force_px	6_ground_force_py	6_ground_force_pz	6_ground_torque_x	6_ground_torque_y	6_ground_torque_z	7_ground_force_vx	7_ground_force_vy	7_ground_force_vz	7_ground_force_px	7_ground_force_py	7_ground_force_pz	7_ground_torque_x	7_ground_torque_y	7_ground_torque_z	8_ground_force_vx	8_ground_force_vy	8_ground_force_vz	8_ground_force_px	8_ground_force_py	8_ground_force_pz	8_ground_torque_x	8_ground_torque_y	8_ground_torque_z	9_ground_force_vx	9_ground_force_vy	9_ground_force_vz	9_ground_force_px	9_ground_force_py	9_ground_force_pz	9_ground_torque_x	9_ground_torque_y	9_ground_torque_z	10_ground_force_vx	10_ground_force_vy	10_ground_force_vz	10_ground_force_px	10_ground_force_py	10_ground_force_pz	10_ground_torque_x	10_ground_torque_y	10_ground_torque_z	11_ground_force_vx	11_ground_force_vy	11_ground_force_vz	11_ground_force_px	11_ground_force_py	11_ground_force_pz	11_ground_torque_x	11_ground_torque_y	11_ground_torque_z	12_ground_force_vx	12_ground_force_vy	12_ground_force_vz	12_ground_force_px	12_ground_force_py	12_ground_force_pz	12_ground_torque_x	12_ground_torque_y	12_ground_torque_z	13_ground_force_vx	13_ground_force_vy	13_ground_force_vz	13_ground_force_px	13_ground_force_py	13_ground_force_pz	13_ground_torque_x	13_ground_torque_y	13_ground_torque_z
0.154340	-0.000000	0.000000	0.000000	0.432354	0.079684	0.392000	0.000000	0.000000	0.000000	-0.000000	0.000000	0.000000	0.439055	0.101200	0.415887	0.000000	0.000000	0.000000	-0.000000	0.000000	0.000000	0.447813	0.113194	0.414849	0.000000	0.000000	0.000000	-0.000000	0.000000	0.000000	0.446914	0.111945	0.392279	0.000000	0.000000	0.000000	-0.000000	0.000000	0.000000	0.455526	0.155303	0.450527	0.000000	0.000000	0.000000	-0.000000	0.000000	0.000000	0.450038	0.128057	0.411469	0.000000	0.000000	0.000000	-0.000000	0.000000	0.000000	0.458935	0.187509	0.397948	0.000000	0.000000	0.000000	-0.000000	0.000000	-0.000000	1.487623	0.140819	0.172812	0.000000	0.000000	0.000000	-0.000000	0.000000	-0.000000	1.443011	0.143743	0.151767	0.000000	0.000000	0.000000	-0.000000	0.000000	-0.000000	1.413896	0.142695	0.158042	0.000000	0.000000	0.000000	-0.000000	0.000000	-0.000000	1.417610	0.138168	0.178553	0.000000	0.000000	0.000000	-0.000000	0.000000	-0.000000	1.327756	0.146873	0.127466	0.000000	0.000000	0.000000	-0.000000	0.000000	-0.000000	1.384351	0.140900	0.161806	0.000000	0.000000	0.000000	-0.000000	0.000000	-0.000000	1.266168	0.133720	0.176862	0.000000	0.000000	0.000000
0.154950	-0.000000	0.000000	0.000000	0.436998	0.081373	0.391851	0.000000	0.000000	0.000000	-0.000000	0.000000	0.000000	0.443957	0.102842	0.415834	0.000000	0.000000	0.000000	-0.000000	0.000000	0.000000	0.452857	0.114828	0.414819	0.000000	0.000000	0.000000	-0.000000	0.000000	0.000000	0.451960	0.113606	0.392242	0.000000	0.000000	0.000000	-0.000000	0.000000	0.000000	0.461136	0.156869	0.450684	0.000000	0.000000	0.000000	-0.000000	0.000000	0.000000	0.455295	0.129686	0.411504	0.000000	0.000000	0.000000	-0.000000	0.000000	0.000000	0.465049	0.189119	0.398247	0.000000	0.000000	0.000000	-0.000000	0.000000	-0.000000	1.499358	0.140638	0.173633	0.000000	0.000000	0.000000	-0.000000	0.000000	-0.000000	1.454735	0.143309	0.152479	0.000000	0.000000	0.000000	-0.000000	0.000000	-0.000000	1.425538	0.142076	0.158766	0.000000	0.000000	0.000000	-0.000000	0.000000	-0.000000	1.429299	0.137602	0.179315	0.000000	0.000000	0.000000	-0.000000	0.000000	-0.000000	1.339371	0.145854	0.128058	0.000000	0.000000	0.000000	-0.000000	0.000000	-0.000000	1.396017	0.140171	0.162509	0.000000	0.000000	0.000000	-0.000000	0.000000	-0.000000	1.277935	0.132549	0.177482	0.000000	0.000000	0.000000
0.156877	-0.000000	0.000000	0.000000	0.452163	0.086624	0.391562	0.000000	0.000000	0.000000	-0.000000	0.000000	0.000000	0.459892	0.107951	0.415811	0.000000	0.000000	0.000000	-0.000000	0.000000	0.000000	0.469210	0.119912	0.414849	0.000000	0.000000	0.000000	-0.000000	0.000000	0.000000	0.468308	0.118767	0.392256	0.000000	0.000000	0.000000	-0.000000	0.000000	0.000000	0.479180	0.161749	0.451236	0.000000	0.000000	0.000000	-0.000000	0.000000	0.000000	0.472279	0.134751	0.411718	0.000000	0.000000	0.000000	-0.000000	0.000000	0.000000	0.484555	0.194107	0.399197	0.000000	0.000000	0.000000	-0.000000	0.000000	-0.000000	1.536095	0.140088	0.176243	0.000000	0.000000	0.000000	-0.000000	0.000000	-0.000000	1.491489	0.141972	0.154718	0.000000	0.000000	0.000000	-0.000000	0.000000	-0.000000	1.462043	0.140156	0.161035	0.000000	0.000000	0.000000	-0.000000	0.000000	-0.000000	1.465924	0.135855	0.181709	0.000000	0.000000	0.000000	-0.000000	0.000000	-0.000000	1.375861	0.142708	0.129868	0.000000	0.000000	0.000000	-0.000000	0.000000	-0.000000	1.432606	0.137919	0.164698	0.000000	0.000000	0.000000	-0.000000	0.000000	-0.000000	1.314856	0.128970	0.179352	0.000000	0.000000	0.000000
0.158274	-0.000000	0.000000	0.000000	0.463591	0.090348	0.391579	0.000000	0.000000	0.000000	-0.000000	0.000000	0.000000	0.471852	0.111585	0.415973	0.000000	0.000000	0.000000	-0.000000	0.000000	0.000000	0.481449	0.123526	0.415025	0.000000	0.000000	0.000000	-0.000000	0.000000	0.000000	0.480525	0.122426	0.392424	0.000000	0.000000	0.000000	-0.000000	0.000000	0.000000	0.492575	0.165226	0.451703	0.000000	0.000000	0.000000	-0.000000	0.000000	0.000000	0.484935	0.138347	0.411997	0.000000	0.000000	0.000000	-0.000000	0.000000	-0.000000	0.498878	0.197632	0.399888	0.000000	0.000000	0.000000	-0.000000	0.000000	-0.000000	1.562361	0.139705	0.178131	0.000000	0.000000	0.000000	-0.000000	0.000000	-0.000000	1.517815	0.141037	0.156318	0.000000	0.000000	0.000000	-0.000000	0.000000	-0.000000	1.488201	0.138802	0.162650	0.000000	0.000000	0.000000	-0.000000	0.000000	-0.000000	1.492141	0.134625	0.183415	0.000000	0.000000	0.000000	-0.000000	0.000000	-0.000000	1.402069	0.140506	0.131115	0.000000	0.000000	0.000000	-0.000000	0.000000	-0.000000	1.458827	0.136340	0.166244	0.000000	0.000000	0.000000	-0.000000	0.000000	-0.000000	1.341330	0.126492	0.180616	0.000000	0.000000	0.000000
0.158884	-0.000000	0.000000	0.000000	0.468689	0.091954	0.391655	0.000000	0.000000	0.000000	-0.000000	0.000000	0.000000	0.477181	0.113154	0.416098	0.000000	0.000000	0.000000	-0.000000	0.000000	0.000000	0.486894	0.125086	0.415149	0.000000	0.000000	0.000000	-0.000000	0.000000	0.000000	0.485953	0.124002	0.392545	0.000000	0.000000	0.000000	-0.000000	0.000000	-0.000000	0.498512	0.166731	0.451927	0.000000	0.000000	0.000000	-0.000000	0.000000	0.000000	0.490552	0.139898	0.412157	0.000000	0.000000	0.000000	-0.000000	0.000000	-0.000000	0.505183	0.199149	0.400190	0.000000	0.000000	0.000000	-0.000000	0.000000	-0.000000	1.573728	0.139542	0.178950	0.000000	0.000000	0.000000	-0.000000	0.000000	-0.000000	1.529220	0.140638	0.157007	0.000000	0.000000	0.000000	-0.000000	0.000000	-0.000000	1.499536	0.138220	0.163344	0.000000	0.000000	0.000000	-0.000000	0.000000	-0.000000	1.503496	0.134098	0.184149	0.000000	0.000000	0.000000	-0.000000	0.000000	-0.000000	1.413441	0.139565	0.131641	0.000000	0.000000	0.000000	-0.000000	0.000000	-0.000000	1.470190	0.135664	0.166904	0.000000	0.000000	0.000000	-0.000000	0.000000	-0.000000	1.352806	0.125440	0.181143	0.000000	0.000000	0.000000
